<svg width="253" height="66" viewBox="0 0 253 66" fill="none" xmlns="http://www.w3.org/2000/svg">
<g clip-path="url(#clip0_4136_6769)">
<path d="M172.622 24.8993C181.719 24.7894 189.183 32.0722 189.292 41.1651C189.399 50.2581 182.112 57.7169 173.015 57.8241C163.919 57.9312 156.459 50.6491 156.35 41.5581C156.241 32.4672 163.526 25.0092 172.622 24.8993ZM174.403 50.4687C176.598 49.6944 177.982 49.2404 179.448 47.3301C184.374 40.9125 180.137 31.5396 171.75 32.1299C169.147 32.7058 167.118 33.7334 165.689 36.0837C163.268 40.0625 163.858 46.6176 168.062 49.231C169.483 50.1145 172.855 51.2455 174.403 50.4687Z" fill="white"/>
<path d="M131.734 25.9313C134.717 25.8476 137.9 25.9379 140.898 25.8978C142.284 25.8791 145.575 25.8213 146.84 25.9789C147.904 26.1149 148.942 26.4059 149.92 26.8422C151.771 27.674 153.598 29.2702 154.168 31.239C155.784 36.8114 154.585 41.2396 148.934 43.3771C149.514 44.6728 150.39 45.7495 151.125 46.9541C151.873 48.2003 152.608 49.4386 153.375 50.6748C154.455 52.4173 155.616 54.1307 156.586 55.9369C156.682 56.1167 156.694 56.7658 156.696 56.989L149.694 57.0084C149.102 57.0296 148.37 56.9286 148.03 56.3781C146.025 53.1331 144.166 49.8015 142.22 46.5213C141.841 45.8806 141.436 45.2809 141.192 44.5737L139.48 44.5685L139.488 52.1427C139.489 53.3562 139.546 55.3226 139.416 56.475C139.269 56.6506 139.143 56.8337 138.888 56.8579C137.399 56.9999 133.177 57.2873 131.994 56.6408C131.557 56.197 131.726 46.6315 131.726 45.4732L131.734 25.9313ZM146.362 37.089L147.12 36.0667L147.122 33.7438C144.745 31.5601 142.638 32.0602 139.474 32.1176L139.475 37.8088C141.731 37.8377 144.554 38.2338 146.362 37.089Z" fill="white"/>
<path d="M87.6877 25.9404C88.8482 25.8622 95.4966 25.7738 96.3208 26.083C97.358 27.6136 100.156 36.2998 100.936 38.456L104.637 48.6171C105.252 50.2724 107.404 55.5192 107.455 56.9941C105.406 56.9245 101.452 57.2638 99.6379 56.7789C99.0203 56.6138 98.034 52.0741 97.6417 50.9886C97.3973 50.8039 96.7889 50.85 96.4498 50.848C93.0538 50.8264 89.6576 50.8342 86.2617 50.8717C86.2442 52.3362 85.238 54.7491 84.8175 56.3582C84.3967 56.8425 83.5627 56.9704 82.9483 56.9842C80.9713 57.0284 78.8673 57.0402 76.9046 56.9253C76.075 56.8768 77.9882 52.6187 78.167 52.121L81.8324 42.0189C83.7787 36.7232 85.6401 31.1915 87.6877 25.9404ZM92.4658 44.4894C93.4298 44.4827 94.4638 44.4957 95.4211 44.4667C94.5779 42.1312 93.6605 39.8174 92.8895 37.4602C92.7586 37.0601 92.4533 35.8102 92.2862 35.5439C92.0607 35.5054 91.7846 35.4495 91.5608 35.4423C91.429 38.2709 89.2679 41.7807 89.1613 44.0055L88.746 44.3128L88.8044 44.427C89.6499 44.5614 91.5351 44.4972 92.4658 44.4894Z" fill="white"/>
<path d="M109.31 25.918L129.333 25.9045L129.338 32.1054L121.904 32.0855C120.696 32.0836 117.52 31.8664 116.737 32.6252C116.325 33.5026 116.496 36.214 116.512 37.305L127.939 37.3021C127.927 39.5968 127.932 41.8917 127.95 44.1866C126.594 44.1316 117.45 44.0301 116.828 44.3747C116.563 44.681 116.563 44.8921 116.514 45.2837L116.511 49.7635C118.366 49.7589 127.725 49.5332 128.903 49.9151C129.592 50.5738 129.478 55.8734 129.081 56.6989C128.426 57.1784 123.004 57.0029 121.729 57.0024L109.31 56.9936L109.31 25.918Z" fill="white"/>
<path d="M192.188 25.9183L212.349 25.9098L212.354 32.109L199.385 32.1113L199.395 37.3063C200.973 37.3115 209.346 37.1799 210.212 37.4245C210.625 37.836 210.816 38.2605 210.822 38.8533C210.843 40.6181 210.803 42.38 210.816 44.147C210.523 44.2171 209.299 44.1519 208.973 44.1802C207.519 44.3071 200.641 43.8661 199.752 44.4186C199.14 45.3869 199.387 55.1629 199.39 57.0171C197.211 56.9126 194.421 56.9934 192.196 56.9944C192.039 46.7865 192.172 36.1511 192.188 25.9183Z" fill="white"/>
<path d="M214.611 25.9323C216.146 25.914 221.043 25.6552 222.094 26.262C222.532 26.8519 222.364 35.7572 222.363 37.059L222.372 57.0136C220.655 56.9282 216.083 57.2912 214.887 56.6489C214.421 56.1805 214.603 46.6724 214.603 45.484L214.611 25.9323Z" fill="white"/>
<path d="M28.9604 39.9289C29.9981 38.9545 30.792 38.112 31.5567 36.9119C31.6043 36.8372 31.9872 36.6023 32.0839 36.5449L32.3091 36.5721C32.2139 37.3365 29.7994 39.3599 29.0532 40.1319L28.9604 39.9289Z" fill="white"/>
<path d="M28.9606 39.9287L29.0534 40.1317C28.0867 40.9719 27.2132 42.2601 26.0356 42.9691C26.1719 42.4955 28.471 40.3616 28.9606 39.9287Z" fill="white"/>
<path d="M3.84868 65.6876L3.82392 46.1898C3.82358 43.762 3.80983 41.3464 3.84751 38.9098C3.87367 37.2177 5.02328 36.4154 6.05676 35.2696C8.26065 32.8264 10.6487 30.8607 13.0925 28.7038L24.4892 18.7051C26.0492 17.3348 27.468 15.8212 29.1863 14.6002C29.8067 14.1592 31.8864 11.2888 32.7372 11.9174C33.4575 12.4495 34.5913 13.6979 35.3172 14.3421C37.0961 15.6594 38.4968 17.1902 40.1043 18.6438L49.7236 27.3006C51.242 28.6452 52.8373 29.833 54.2492 31.3348C54.825 31.9474 55.8513 32.5079 56.4491 33.1484C57.9017 34.5784 59.3952 36.0412 60.8203 37.4928L60.8349 55.423C60.8356 57.3388 61.0501 64.5011 60.4718 65.6876H17.2409C16.9171 65.1894 16.8637 65.1528 16.9469 64.6645C18.2808 62.8845 20.9732 60.9657 22.5942 59.4483C24.849 57.4121 26.9775 54.8451 29.2789 52.8962C31.2961 51.1879 32.9126 49.7782 34.7105 47.8444C35.7863 46.6873 36.7605 43.182 37.5502 42.6448C38.5458 42.5902 41.5943 45.4906 42.3055 46.3367C42.4881 46.5538 42.6668 46.9071 42.6735 47.1968C42.691 47.9467 41.9042 48.3678 41.3483 48.666C40.0461 49.3643 38.7227 50.0075 37.5538 50.9173C35.1592 53.0278 33.4043 55.8021 31.4619 58.3076C30.793 59.1704 29.9713 60.0089 29.2198 60.8015C30.8896 60.6845 33.8571 60.789 35.6526 60.791L48.5297 60.8004C49.9608 60.8008 54.9976 61.012 55.8958 60.3482C56.0831 59.5596 56.0133 55.2218 56.0129 54.2156C56.024 49.6931 56.0121 45.1707 55.9769 40.6485C55.2552 39.7115 54.5574 38.7226 53.7761 37.829C51.2093 35.0368 48.3368 32.5703 45.4961 30.0632C42.0908 27.0577 38.4151 24.2506 35.1435 21.0978C34.1881 20.1772 33.2491 19.193 32.3185 18.2424C30.7103 20.028 29.6413 20.8258 27.8211 22.3517C27.0848 22.9848 26.3892 23.8598 25.6376 24.4543C23.9383 25.7985 22.4205 27.2158 20.8951 28.7536C20.2171 29.437 19.2376 30.0243 18.5404 30.7051C15.6591 33.5182 12.5236 36.0407 9.64407 38.8668C9.39523 39.1109 8.82213 39.7323 8.77709 40.0861C8.54045 41.9451 8.63732 43.9019 8.64067 45.7819L8.66181 56.7961C9.55145 55.7394 10.8064 54.5567 11.7648 53.5287L19.3895 45.4665C20.1782 44.6479 20.8255 43.4979 21.6156 42.6748C22.2495 42.0144 23.3817 41.7464 24.0718 41.14C26.4242 39.0732 28.5241 36.779 30.4225 34.3043C29.4935 32.2701 30.7651 32.4672 31.9563 31.089C31.9999 30.6958 32.0177 30.8409 31.8015 30.4646C29.5246 28.7761 22.9442 31.2437 21.7033 30.2376L21.687 29.9672C22.5274 28.4825 26.8359 26.48 28.4747 26.1449C30.4878 25.7332 34.5109 25.7221 36.4536 26.3386C38.2688 26.9145 42.2452 30.4436 43.1096 32.1238L43.1498 35.2848C45.4933 36.0369 49.5559 37.5708 49.7968 40.4493C49.8799 41.4431 46.5711 44.3241 45.7641 45.0533C45.2013 45.0838 44.5444 45.0553 43.9737 45.0441C40.7738 43.0146 40.8381 40.2806 38.9419 38.9085C34.6194 38.7862 34.4101 39.3624 31.857 42.6662C31.1862 43.5342 30.0017 44.5072 29.2524 45.4569C27.3657 47.9661 25.7776 50.2538 23.5551 52.4904C20.3237 55.7421 16.8225 58.8774 13.9527 62.4546C12.906 63.7593 11.7497 64.6868 10.4496 65.6876H3.84868ZM28.9606 39.9288C28.471 40.3617 26.1719 42.4955 26.0356 42.9692C27.2132 42.2602 28.0867 40.972 29.0534 40.1318C29.7995 39.3597 32.214 37.3363 32.3092 36.5719L32.084 36.5448C31.9873 36.6022 31.6045 36.837 31.5568 36.9117C30.7921 38.1119 29.9983 38.9543 28.9606 39.9288Z" fill="white"/>
<path d="M31.8167 0H32.9381C33.2261 0.352354 33.577 0.756347 33.9678 0.998825C35.498 1.94781 36.6577 3.33331 37.9824 4.5305C38.8408 5.30193 39.7698 6.01643 40.6348 6.79537L54.8579 19.5734C57.9699 22.3695 61.3292 25.4805 64.2808 28.3953C64.8783 28.9854 64.9093 36.4317 64.3723 36.9271C63.5234 36.8777 56.4272 29.9729 55.2081 29.1646C54.8392 28.9198 53.6671 27.4664 53.2075 27.1547C51.3842 25.7775 49.86 24.2021 48.1856 22.6889L36.3716 12.16C35.2307 11.1552 33.9333 9.67855 32.7377 8.70838C32.3358 8.38226 31.474 9.18611 31.129 9.49184L8.33778 29.8355C6.85991 31.1349 5.8096 32.5588 4.13066 33.7499C2.66389 34.7904 1.8065 36.2401 0 36.9731V28.347C0.41746 28.0752 0.779797 27.5288 1.18471 27.2427C2.98056 25.9744 4.41142 24.357 6.03256 22.9331L22.6544 8.1007C24.3596 6.55637 25.8926 4.94841 27.7408 3.5241C28.7417 2.60543 29.6705 1.56669 30.7048 0.688494C30.9556 0.475628 31.4833 0.24053 31.8167 0Z" fill="white"/>
<path d="M234.256 39.7002C233.204 38.5421 230.655 33.7523 229.7 32.1549C228.606 30.3243 227.223 28.0029 226.25 26.1125C226.535 25.84 234.443 25.6485 234.901 26.2688C236.372 28.2575 237.282 30.6994 238.917 32.5998C239.268 31.6363 242.028 26.7757 242.664 25.9221C243.776 25.9157 250.389 25.7695 251 26.0457C251.162 26.6897 249.634 28.7893 249.271 29.4701C247.938 31.971 246.361 34.3453 245.01 36.8358C244.512 37.7528 243.865 38.6688 243.459 39.6212C243.718 41.7638 248.872 48.7841 250.033 51.2512C250.327 51.8746 252.663 55.9068 253 56.2225V56.9801C251.274 56.9983 246.434 57.1773 245.017 56.8229C243.59 56.466 239.926 48.1759 238.824 47.6866C237.39 47.8395 234.409 55.5441 233.251 56.524C232.283 57.3412 225.997 56.9936 224.598 56.9435C225.224 55.0291 227.186 52.1182 228.183 50.2628C229.615 47.5951 231.29 45.0825 232.681 42.3852C233.267 41.2476 233.724 41.0825 234.256 39.7002Z" fill="white"/>
</g>
<defs>
<clipPath id="clip0_4136_6769">
<rect width="253" height="65.6876" fill="white"/>
</clipPath>
</defs>
</svg>
